<svg id="Layer_1" enable-background="new 0 0 482 482" height="512" viewBox="0 0 482 482" width="512" xmlns="http://www.w3.org/2000/svg"><path d="m449.964 108.111-184.033-89.659c-15.841-7.717-34.016-7.729-49.864-.031l-183.967 89.34c-19.5 9.469-32.1 29.595-32.1 51.273v261.311c0 27.019 21.981 49 49 49h384c27.019 0 49-21.981 49-49v-260.992c0-21.648-12.575-41.761-32.036-51.242zm14.036 312.234c0 17.093-13.906 31-31 31h-384c-17.094 0-31-13.907-31-31v-221.291l198.1 96.203c15.825 7.685 33.976 7.685 49.801 0l144.012-69.937c4.471-2.171 6.336-7.556 4.164-12.027-2.17-4.47-7.551-6.337-12.027-4.164l-144.012 69.937c-10.828 5.258-23.246 5.258-34.074 0l-205.964-100.022v-20.01c0-14.832 8.621-28.603 21.963-35.082l183.967-89.34c10.845-5.266 23.279-5.258 34.118.021l184.033 89.659c13.315 6.488 21.919 20.25 21.919 35.061zm-310.636-104.364c3.515 3.515 3.515 9.213 0 12.728l-87.75 87.75c-1.758 1.757-4.061 2.636-6.364 2.636-7.946 0-12.051-9.677-6.364-15.364l87.75-87.75c3.515-3.515 9.213-3.515 12.728 0zm275.75 87.75c3.515 3.515 3.515 9.213 0 12.728-3.516 3.515-9.213 3.515-12.729 0l-87.75-87.75c-3.515-3.515-3.515-9.213 0-12.728 3.516-3.515 9.213-3.515 12.729 0z"/></svg>